<svg width="24" height="24" viewBox="0 0 24 24" fill="none" xmlns="http://www.w3.org/2000/svg">
<path fill-rule="evenodd" clip-rule="evenodd" d="M12.0925 2.56438C6.84964 2.56438 2.5995 6.81452 2.5995 12.0573C2.5995 17.3002 6.84964 21.5503 12.0925 21.5503C17.3353 21.5503 21.5854 17.3002 21.5854 12.0573C21.5854 6.81452 17.3353 2.56438 12.0925 2.56438ZM0.489952 12.0573C0.489952 5.64945 5.68457 0.454834 12.0925 0.454834C18.5003 0.454834 23.695 5.64945 23.695 12.0573C23.695 18.4652 18.5003 23.6598 12.0925 23.6598C5.68457 23.6598 0.489952 18.4652 0.489952 12.0573Z" fill="black"/>
<path fill-rule="evenodd" clip-rule="evenodd" d="M0.489952 12.0572C0.489952 11.4747 0.96219 11.0024 1.54473 11.0024H22.6402C23.2227 11.0024 23.695 11.4747 23.695 12.0572C23.695 12.6397 23.2227 13.112 22.6402 13.112H1.54473C0.96219 13.112 0.489952 12.6397 0.489952 12.0572Z" fill="black"/>
<path fill-rule="evenodd" clip-rule="evenodd" d="M8.92831 12.0573C9.0006 15.3006 10.116 18.423 12.0924 20.9693C14.0688 18.423 15.1842 15.3006 15.2565 12.0573C15.1842 8.81405 14.0688 5.69159 12.0924 3.14532C10.116 5.69159 9.0006 8.81405 8.92831 12.0573ZM12.0924 1.50958L11.3136 0.798218C8.50287 3.87534 6.90555 7.86865 6.81874 12.0353C6.81844 12.05 6.81844 12.0646 6.81874 12.0793C6.90555 16.246 8.50287 20.2393 11.3136 23.3164C11.5134 23.5352 11.7961 23.6598 12.0924 23.6598C12.3887 23.6598 12.6713 23.5352 12.8712 23.3164C15.6819 20.2393 17.2792 16.246 17.366 12.0793C17.3663 12.0646 17.3663 12.05 17.366 12.0353C17.2792 7.86865 15.6819 3.87534 12.8712 0.798218L12.0924 1.50958Z" fill="black"/>
</svg>
